<?xml version="1.0" encoding="UTF-8"?>
<!DOCTYPE svg PUBLIC "-//W3C//DTD SVG 1.1//EN" "http://www.w3.org/Graphics/SVG/1.1/DTD/svg11.dtd">
<svg xmlns="http://www.w3.org/2000/svg" xmlns:xlink="http://www.w3.org/1999/xlink" version="1.1" width="100%" height="100%" viewBox="-432 -432 864 864">
 <style type="text/css">
.main { font-family:Helvetica,Arial,sans-serif; font-size:40px; text-anchor:end;
        fill:none; stroke-opacity:0.75; stroke-width:2; stroke-linecap:round; cursor:default; }
.main:hover   { fill-opacity:0.2; stroke-opacity:0.2; }
.active:hover { fill-opacity:1;   stroke-opacity:1; stroke-width:3; }
.nofade       { fill-opacity:1;   stroke-opacity:1; pointer-events:none; }
.vab  { font-style:italic; font-weight:bold; font-size:24px; text-anchor:middle; stroke:none; }
.rule { fill:none; stroke-width:1; }
path, ellipse { pointer-events:none; }
text { stroke:none; }
a    { outline:none; }
@keyframes         rot { from { transform:         rotate(360deg); }
                         to   { transform:         rotate(0deg);   } }
@-moz-keyframes    rot { from { -moz-transform:    rotate(360deg); }
                         to   { -moz-transform:    rotate(0deg);   } }
@-webkit-keyframes rot { from { -webkit-transform: rotate(360deg); }
                         to   { -webkit-transform: rotate(0deg);   } }
.rot_sun { animation:         rot 8766s  linear infinite;
           -moz-animation:    rot 8766s  linear infinite;
           -webkit-animation: rot 8766s  linear infinite; }
.rot_gra { animation:         rot 24.19s linear infinite;
           -moz-animation:    rot 24.19s linear infinite;
           -webkit-animation: rot 24.19s linear infinite; }
.rot_geo { animation:         rot 23.93s linear infinite;
           -moz-animation:    rot 23.93s linear infinite;
           -webkit-animation: rot 23.93s linear infinite; }
.rot_gal { animation:         rot 14.37s linear infinite;
           -moz-animation:    rot 14.37s linear infinite;
           -webkit-animation: rot 14.37s linear infinite; }
.rot_com { animation:         rot 12.62s linear infinite;
           -moz-animation:    rot 12.62s linear infinite;
           -webkit-animation: rot 12.62s linear infinite; }
.rot_gps { animation:         rot 11.97s linear infinite;
           -moz-animation:    rot 11.97s linear infinite;
           -webkit-animation: rot 11.97s linear infinite; }
.rot_glo { animation:         rot 11.25s linear infinite;
           -moz-animation:    rot 11.25s linear infinite;
           -webkit-animation: rot 11.25s linear infinite; }
.rot_iri { animation:         rot  1.7s  linear infinite;
           -moz-animation:    rot  1.7s  linear infinite;
           -webkit-animation: rot  1.7s  linear infinite; }
.rot_hub { animation:         rot  1.6s  linear infinite;
           -moz-animation:    rot  1.6s  linear infinite;
           -webkit-animation: rot  1.6s  linear infinite; }
.rot_iss { animation:         rot  1.5s  linear infinite;
           -moz-animation:    rot  1.5s  linear infinite;
           -webkit-animation: rot  1.5s  linear infinite; }
.rot_min { animation:         rot  1s    linear infinite;
           -moz-animation:    rot  1s    linear infinite;
           -webkit-animation: rot  1s    linear infinite; }
.rot_hr  { animation:         rot  12s   linear infinite;
           -moz-animation:    rot  12s   linear infinite;
           -webkit-animation: rot  12s   linear infinite; }
 </style>
 <defs>
  <radialGradient id="gradient_shade" cx="50%" cy="50%" r="67%" fx="33%" fy="33%">
   <stop offset="10%" stop-color="#000000" stop-opacity="0"/>
   <stop offset="99%" stop-color="#000000" stop-opacity="0.75"/>
  </radialGradient>
  <radialGradient id="gradient_vab" cx="50%" cy="50%" r="50%" fx="50%" fy="50%">
   <stop offset="7.4%" stop-color="#ff9900" stop-opacity="0"/>
   <stop offset="9.4%" stop-color="#ff9900" stop-opacity="0.3"/>
   <stop offset="10.4%" stop-color="#ff9900" stop-opacity="0.3"/>
   <stop offset="12.4%" stop-color="#ff9900" stop-opacity="0"/>
   <stop offset="19.4%" stop-color="#9999ff" stop-opacity="0"/>
   <stop offset="21.4%" stop-color="#9999ff" stop-opacity="0.2"/>
   <stop offset="66.4%" stop-color="#9999ff" stop-opacity="0"/>
  </radialGradient>
  <path id="km" class="rule" d="M 10,0 V -10 M 20,0 V -10 M 30,0 V -10 M 40,0 V -10 M 50,0 V -20 M 60,0 V -10 M 70,0 V -10 M 80,0 V -10 M 90,0 V -10 M 100,0 V -30"/>
  <path id="mi" class="rule" d="M 16.1,0 V 10 M 32.2,0 V 10 M 48.3,0 V 10 M 64.4,0 V 10 M 80.5,0 V 20 M 96.6,0 V 10 M 112.7,0 V 10 M 128.8,0 V 10 M 144.9,0 V 10 M 161,0 V 30"/>
  <circle id="satellite" cx="0" cy="0" r="3"/>
  <path id="tick" d="M 0,-50 V -60"/>
  <g id="tick_3" stroke="#cccccc">
   <use xlink:href="#tick" stroke="#999999"/>
   <use xlink:href="#tick" transform="rotate(30)"/>
   <use xlink:href="#tick" transform="rotate(60)"/>
  </g>
  <clipPath id="clip_earth"><ellipse cx="0" cy="0" rx="100" ry="100"/></clipPath>
 </defs>
 <g class="main">
  <circle cx="0" cy="0" r="99999" fill="#ffffff" fill-opacity="1"/>
  <g id="vab" class="active vab">
   <ellipse cx="0" cy="0" rx="1000" ry="1000" fill="url(#gradient_vab)"/>
   <switch>
    <a systemLanguage="en" target="info" xlink:href="https://www.wikiwand.com/en/Van_Allen_radiation_belt">
     <switch><text x="-6" y="-109" fill="#cc6600" id="trsvg122-ko" systemLanguage="ko"><tspan id="trsvg1-ko">밴앨런대</tspan><tspan x="-6" y="-86" id="trsvg2-ko">내층</tspan></text><text x="-6" y="-109" fill="#cc6600" id="trsvg122"><tspan id="trsvg1">Inner   Van</tspan><tspan x="-6" y="-86" id="trsvg2">Allen   belt</tspan></text></switch>
     <switch><text x="80" y="358" fill="#9999cc" id="trsvg123-ko" systemLanguage="ko"><tspan id="trsvg3-ko">밴앨런대</tspan><tspan x="80" y="380" id="trsvg4-ko">외층</tspan></text><text x="80" y="358" fill="#9999cc" id="trsvg123"><tspan id="trsvg3">Outer Van</tspan><tspan x="80" y="380" id="trsvg4">Allen belt</tspan></text></switch>
    </a>
    <a systemLanguage="es" target="info" xlink:href="https://www.wikiwand.com/en/Cinturones_de_Van_Allen">
     <switch><text x="-6" y="-117" fill="#cc6600" id="trsvg124-ko" systemLanguage="ko"><tspan id="trsvg5-ko">밴앨런대</tspan><tspan x="10" y="-94" id="trsvg6-ko">내층</tspan></text><text x="-6" y="-117" fill="#cc6600" id="trsvg124"><tspan id="trsvg5">Cinturón   de Van</tspan><tspan x="10" y="-94" id="trsvg6">Allen   interior</tspan></text></switch>
     <switch><text x="100" y="358" fill="#9999cc" id="trsvg125-ko" systemLanguage="ko"><tspan id="trsvg7-ko">밴앨런대</tspan><tspan x="100" y="380" id="trsvg8-ko">외층</tspan></text><text x="100" y="358" fill="#9999cc" id="trsvg125"><tspan id="trsvg7">Cinturón de Van</tspan><tspan x="100" y="380" id="trsvg8">Allen exterior</tspan></text></switch>
    </a>
    <a systemLanguage="en" target="info" xlink:href="https://www.wikiwand.com/en/Ceinture_de Van_Allen">
     <switch><text x="-6" y="-117" fill="#cc6600" id="trsvg126-ko" systemLanguage="ko"><tspan id="trsvg9-ko">밴앨런대</tspan><tspan x="10" y="-94" id="trsvg10-ko">내층</tspan></text><text x="-6" y="-117" fill="#cc6600" id="trsvg126"><tspan id="trsvg9">Ceinture de Van</tspan><tspan x="10" y="-94" id="trsvg10">Allen intérieure</tspan></text></switch>
     <switch><text x="100" y="358" fill="#9999cc" id="trsvg127-ko" systemLanguage="ko"><tspan id="trsvg11-ko">밴앨런대</tspan><tspan x="100" y="380" id="trsvg12-ko">외층</tspan></text><text x="100" y="358" fill="#9999cc" id="trsvg127"><tspan id="trsvg11">Ceinture de Van</tspan><tspan x="100" y="380" id="trsvg12">Allen extérieure</tspan></text></switch>
    </a>
    <a target="info" xlink:href="https://www.wikiwand.com/en/Van_Allen_radiation_belt">
     <switch><text x="-6" y="-109" fill="#cc6600" id="trsvg128-ko" systemLanguage="ko"><tspan id="trsvg13-ko">밴앨런대</tspan><tspan x="-6" y="-86" id="trsvg14-ko">내층</tspan></text><text x="-6" y="-109" fill="#cc6600" id="trsvg128"><tspan id="trsvg13">Inner   Van</tspan><tspan x="-6" y="-86" id="trsvg14">Allen   belt</tspan></text></switch>
     <switch><text x="80" y="358" fill="#9999cc" id="trsvg129-ko" systemLanguage="ko"><tspan id="trsvg15-ko">밴앨런대</tspan><tspan x="80" y="380" id="trsvg16-ko">외층</tspan></text><text x="80" y="358" fill="#9999cc" id="trsvg129"><tspan id="trsvg15">Outer Van</tspan><tspan x="80" y="380" id="trsvg16">Allen belt</tspan></text></switch>
    </a>
   </switch>
  </g>
  <g id="grave" class="active" stroke="#cc9999" fill="#cc9999" text-anchor="end">
   <path d="M 0,-425 H 140"/>
   <ellipse cx="0" cy="0" rx="425" ry="425" fill="none"/>
   <g class="rot_gra"><use xlink:href="#satellite" transform="translate(0,-425)"/></g>
   <switch>
    <a systemLanguage="en" target="info" xlink:href="https://www.wikiwand.com/en/Graveyard_orbit">
     <switch><text x="430" y="-400" id="trsvg130-ko" systemLanguage="ko"><tspan id="trsvg17-ko">묘지 궤도</tspan><tspan x="430" y="-366" font-size="28" id="trsvg18-ko">(정지위성궤도+300 km)</tspan></text><text x="430" y="-400" id="trsvg130"><tspan id="trsvg17">Graveyard orbit</tspan><tspan x="430" y="-366" font-size="28" id="trsvg18">(GEO+300 km)</tspan></text></switch>
    </a>
    <a systemLanguage="es" target="info" xlink:href="https://www.wikiwand.com/en/%C3%93rbita_cementerio">
     <switch><text x="430" y="-400" id="trsvg131-ko" systemLanguage="ko"><tspan id="trsvg19-ko">Órbita cementerio</tspan><tspan x="430" y="-366" font-size="28" id="trsvg20-ko">(정지위성궤도+300 km)</tspan></text><text x="430" y="-400" id="trsvg131"><tspan id="trsvg19">Órbita cementerio</tspan><tspan x="430" y="-366" font-size="28" id="trsvg20">(GEO+300 km)</tspan></text></switch>
    </a>
    <a systemLanguage="en" target="info" xlink:href="https://www.wikiwand.com/en/Orbite_de_rebut">
     <switch><text x="430" y="-400" id="trsvg132-ko" systemLanguage="ko"><tspan id="trsvg21-ko">Orbite de rebut</tspan><tspan x="430" y="-366" font-size="28" id="trsvg22-ko">(정지위성궤도+300 km)</tspan></text><text x="430" y="-400" id="trsvg132"><tspan id="trsvg21">Orbite de rebut</tspan><tspan x="430" y="-366" font-size="28" id="trsvg22">(GEO+300 km)</tspan></text></switch>
    </a>
    <a target="info" xlink:href="https://www.wikiwand.com/en/Graveyard_orbit">
     <switch><text x="430" y="-400" id="trsvg133-ko" systemLanguage="ko"><tspan id="trsvg23-ko">묘지 궤도</tspan><tspan x="430" y="-366" font-size="28" id="trsvg24-ko">(정지위성궤도+300 km)</tspan></text><text x="430" y="-400" id="trsvg133"><tspan id="trsvg23">Graveyard orbit</tspan><tspan x="430" y="-366" font-size="28" id="trsvg24">(GEO+300 km)</tspan></text></switch>
    </a>
   </switch>
  </g>
  <g id="geo" class="active" stroke="#666666" fill="#666666" text-anchor="start">
   <path d="M 0,-422 H -170"/>
   <ellipse cx="0" cy="0" rx="422" ry="422" fill="none"/>
   <g class="rot_geo"><use xlink:href="#satellite" transform="translate(0,-422)"/><path d="M 0,0 V -422" stroke-dasharray="1,4"/></g>
   <switch>
    <a systemLanguage="en" target="info" xlink:href="https://www.wikiwand.com/en/Geostationary_orbit">
     <switch><text x="-425" y="-400" id="trsvg134-ko" systemLanguage="ko"><tspan id="trsvg25-ko">정지위성궤도</tspan><tspan x="-425" y="-365" id="trsvg26-ko"> </tspan></text><text x="-425" y="-400" id="trsvg134"><tspan id="trsvg25">Geostationary</tspan><tspan x="-425" y="-365" id="trsvg26">Earth orbit</tspan></text></switch>
    </a>
    <a systemLanguage="es" target="info" xlink:href="https://www.wikiwand.com/en/%C3%93rbita_geoestacionaria">
     <switch><text x="-425" y="-400" id="trsvg135-ko" systemLanguage="ko"><tspan id="trsvg27-ko">정지위성궤도</tspan><tspan x="-425" y="-365" id="trsvg28-ko"> </tspan></text><text x="-425" y="-400" id="trsvg135"><tspan id="trsvg27">Órbita Geo-</tspan><tspan x="-425" y="-365" id="trsvg28">estacionaria</tspan></text></switch>
    </a>
    <a systemLanguage="en" target="info" xlink:href="https://www.wikiwand.com/en/Orbite_g%C3%A9ostationnaire">
     <switch><text x="-425" y="-400" id="trsvg136-ko" systemLanguage="ko"><tspan id="trsvg29-ko">정지위성궤도</tspan><tspan x="-425" y="-365" id="trsvg30-ko"> </tspan></text><text x="-425" y="-400" id="trsvg136"><tspan id="trsvg29">Orbite géo-</tspan><tspan x="-425" y="-365" id="trsvg30">stationnaire</tspan></text></switch>
    </a>
    <a target="info" xlink:href="https://www.wikiwand.com/en/Geostationary_orbit">
     <switch><text x="-425" y="-400" id="trsvg137-ko" systemLanguage="ko"><tspan id="trsvg31-ko">정지위성궤도</tspan><tspan x="-425" y="-365" id="trsvg32-ko"> </tspan></text><text x="-425" y="-400" id="trsvg137"><tspan id="trsvg31">Geostationary</tspan><tspan x="-425" y="-365" id="trsvg32">Earth orbit</tspan></text></switch>
    </a>
   </switch>
  </g>
  <g id="galileo" class="active" stroke="#009999" fill="#009999">
   <path d="M 0,-296 H -145"/>
   <ellipse cx="0" cy="0" rx="296" ry="296" fill="none"/>
   <g class="rot_gal"><use xlink:href="#satellite" transform="translate(0,-296)"/></g>
   <switch>
    <a systemLanguage="en" target="info" xlink:href="https://www.wikiwand.com/en/Galileo_(satellite_navigation)">
     <switch><text x="-145" y="-296" id="trsvg138-ko" systemLanguage="ko"><tspan id="trsvg33-ko">갈릴레오</tspan></text><text x="-145" y="-296" id="trsvg138"><tspan id="trsvg33">Galileo</tspan></text></switch>
    </a>
    <a systemLanguage="es" target="info" xlink:href="https://www.wikiwand.com/en/Galileo_(navegaci%C3%B3n_por_sat%C3%A9lite)">
     <switch><text x="-145" y="-296" id="trsvg139-ko" systemLanguage="ko"><tspan id="trsvg34-ko">갈릴레오</tspan></text><text x="-145" y="-296" id="trsvg139"><tspan id="trsvg34">Galileo</tspan></text></switch>
    </a>
    <a systemLanguage="en" target="info" xlink:href="https://www.wikiwand.com/en/Galileo_(syst%C3%A8me_de_positionnement)">
     <switch><text x="-145" y="-296" id="trsvg140-ko" systemLanguage="ko"><tspan id="trsvg35-ko">갈릴레오</tspan></text><text x="-145" y="-296" id="trsvg140"><tspan id="trsvg35">Galileo</tspan></text></switch>
    </a>
    <a target="info" xlink:href="https://www.wikiwand.com/en/Galileo_(satellite_navigation)">
     <switch><text x="-145" y="-296" id="trsvg141-ko" systemLanguage="ko"><tspan id="trsvg36-ko">갈릴레오</tspan></text><text x="-145" y="-296" id="trsvg141"><tspan id="trsvg36">Galileo</tspan></text></switch>
    </a>
   </switch>
  </g>
  <g id="beidou" class="active" stroke="#cc9900" fill="#cc9900" text-anchor="end">
   <path d="M 0,-276 H 230"/>
   <ellipse cx="0" cy="0" rx="276" ry="276" fill="none"/>
   <g class="rot_com"><use xlink:href="#satellite" transform="translate(0,-276)"/></g>
   <switch>
    <a systemLanguage="en" target="info" xlink:href="https://www.wikiwand.com/en/BeiDou">
     <switch><text x="430" y="-295" id="trsvg142-ko" systemLanguage="ko"><tspan id="trsvg37-ko">베이더우</tspan><tspan x="430" y="-270" font-size="28" id="trsvg38-ko">중궤도 위성</tspan></text><text x="430" y="-295" id="trsvg142"><tspan id="trsvg37">BeiDou</tspan><tspan x="430" y="-270" font-size="28" id="trsvg38">MEO satellites</tspan></text></switch>
    </a>
    <a systemLanguage="es" target="info" xlink:href="https://www.wikiwand.com/en/Beidou">
     <switch><text x="430" y="-295" id="trsvg143-ko" systemLanguage="ko"><tspan id="trsvg39-ko">베이더우</tspan><tspan x="430" y="-270" font-size="28" id="trsvg40-ko">중궤도 위성</tspan></text><text x="430" y="-295" id="trsvg143"><tspan id="trsvg39">BeiDou</tspan><tspan x="430" y="-270" font-size="28" id="trsvg40">Satélites MEO</tspan></text></switch>
    </a>
    <a systemLanguage="en" target="info" xlink:href="https://www.wikiwand.com/en/Beidou">
     <switch><text x="430" y="-295" id="trsvg144-ko" systemLanguage="ko"><tspan id="trsvg41-ko">베이더우</tspan><tspan x="430" y="-270" font-size="28" id="trsvg42-ko">중궤도 위성</tspan></text><text x="430" y="-295" id="trsvg144"><tspan id="trsvg41">BeiDou</tspan><tspan x="430" y="-270" font-size="28" id="trsvg42">Satellites MEO</tspan></text></switch>
    </a>
    <a target="info" xlink:href="https://www.wikiwand.com/en/BeiDou">
     <switch><text x="430" y="-295" id="trsvg145-ko" systemLanguage="ko"><tspan id="trsvg43-ko">베이더우</tspan><tspan x="430" y="-270" font-size="28" id="trsvg44-ko">중궤도 위성</tspan></text><text x="430" y="-295" id="trsvg145"><tspan id="trsvg43">BeiDou</tspan><tspan x="430" y="-270" font-size="28" id="trsvg44">MEO satellites</tspan></text></switch>
    </a>
   </switch>
  </g>
  <g id="gps" class="active" stroke="#0000ff" fill="#0000ff">
   <path d="M 0,-266 H -145"/>
   <ellipse cx="0" cy="0" rx="266" ry="266" fill="none"/>
   <g class="rot_gps"><use xlink:href="#satellite" transform="translate(0,-266)"/></g>
   <switch>
    <a systemLanguage="en" target="info" xlink:href="https://www.wikiwand.com/en/Global_Positioning_System">
     <switch><text x="-145" y="-261" id="trsvg146"><tspan id="trsvg45">GPS</tspan></text></switch>
    </a>
    <a systemLanguage="es" target="info" xlink:href="https://www.wikiwand.com/en/GPS">
     <switch><text x="-145" y="-261" id="trsvg147"><tspan id="trsvg46">GPS</tspan></text></switch>
    </a>
    <a systemLanguage="en" target="info" xlink:href="https://www.wikiwand.com/en/GPS_(assistant_de_navigation)">
     <switch><text x="-145" y="-261" id="trsvg148"><tspan id="trsvg47">GPS</tspan></text></switch>
    </a>
    <a target="info" xlink:href="https://www.wikiwand.com/en/Global_Positioning_System">
     <switch><text x="-145" y="-261" id="trsvg149"><tspan id="trsvg48">GPS</tspan></text></switch>
    </a>
   </switch>
  </g>
  <g id="glonass" class="active" stroke="#ff0000" fill="#ff0000" text-anchor="end">
   <path d="M 0,-255 H 230"/>
   <ellipse cx="0" cy="0" rx="255" ry="255" fill="none"/>
   <g class="rot_glo"><use xlink:href="#satellite" transform="translate(0,-255)"/></g>
   <switch>
    <a systemLanguage="en" target="info" xlink:href="https://www.wikiwand.com/en/GLONASS">
     <switch><text x="430" y="-228" id="trsvg150-ko" systemLanguage="ko"><tspan id="trsvg49-ko">글로나스</tspan></text><text x="430" y="-228" id="trsvg150"><tspan id="trsvg49">GLONASS</tspan></text></switch>
    </a>
    <a systemLanguage="es" target="info" xlink:href="https://www.wikiwand.com/en/GLONASS">
     <switch><text x="430" y="-228" id="trsvg151-ko" systemLanguage="ko"><tspan id="trsvg50-ko">글로나스</tspan></text><text x="430" y="-228" id="trsvg151"><tspan id="trsvg50">GLONASS</tspan></text></switch>
    </a>
    <a systemLanguage="en" target="info" xlink:href="https://www.wikiwand.com/en/GLONASS">
     <switch><text x="430" y="-228" id="trsvg152-ko" systemLanguage="ko"><tspan id="trsvg51-ko">글로나스</tspan></text><text x="430" y="-228" id="trsvg152"><tspan id="trsvg51">GLONASS</tspan></text></switch>
    </a>
    <a target="info" xlink:href="https://www.wikiwand.com/en/GLONASS">
     <switch><text x="430" y="-228" id="trsvg153-ko" systemLanguage="ko"><tspan id="trsvg52-ko">글로나스</tspan></text><text x="430" y="-228" id="trsvg153"><tspan id="trsvg52">GLONASS</tspan></text></switch>
    </a>
   </switch>
  </g>
  <g id="iridium" class="active" stroke="#660099" fill="#660099">
   <path d="M 0,-71.8 H -80"/>
   <ellipse cx="0" cy="0" rx="71.8" ry="71.8" fill="none"/>
   <g class="rot_iri"><use xlink:href="#satellite" transform="translate(0,-71.8)"/></g>
   <switch>
    <a systemLanguage="en" target="info" xlink:href="https://www.wikiwand.com/en/Iridium_satellite_constellation">
     <switch><text x="-80" y="-71.8" id="trsvg154-ko" systemLanguage="ko"><tspan id="trsvg53-ko">이리듐</tspan></text><text x="-80" y="-71.8" id="trsvg154"><tspan id="trsvg53">Iridium</tspan></text></switch>
    </a>
    <a systemLanguage="es" target="info" xlink:href="https://www.wikiwand.com/en/Iridium">
     <switch><text x="-80" y="-71.8" id="trsvg155-ko" systemLanguage="ko"><tspan id="trsvg54-ko">이리듐</tspan></text><text x="-80" y="-71.8" id="trsvg155"><tspan id="trsvg54">Iridium</tspan></text></switch>
    </a>
    <a systemLanguage="en" target="info" xlink:href="https://www.wikiwand.com/en/Iridium_(t%C3%A9l%C3%A9phonie_par_satellite)">
     <switch><text x="-80" y="-71.8" id="trsvg156-ko" systemLanguage="ko"><tspan id="trsvg55-ko">이리듐</tspan></text><text x="-80" y="-71.8" id="trsvg156"><tspan id="trsvg55">Iridium</tspan></text></switch>
    </a>
    <a target="info" xlink:href="https://www.wikiwand.com/en/Iridium_satellite_constellation">
     <switch><text x="-80" y="-71.8" id="trsvg157-ko" systemLanguage="ko"><tspan id="trsvg56-ko">이리듐</tspan></text><text x="-80" y="-71.8" id="trsvg157"><tspan id="trsvg56">Iridium</tspan></text></switch>
    </a>
   </switch>
  </g>
  <g id="iss" class="active" stroke="#ff00cc" fill="#ff00cc" text-anchor="start">
   <path d="M 0,67.5 H 80"/>
   <ellipse cx="0" cy="0" rx="67.5" ry="67.5" fill="none"/>
   <g class="rot_iss"><use xlink:href="#satellite" transform="translate(0,67.5)"/></g>
   <switch>
    <a systemLanguage="en" target="info" xlink:href="https://www.wikiwand.com/en/International_Space_Station">
     <switch><text x="80" y="67.5" id="trsvg158-ko" systemLanguage="ko"><tspan id="trsvg57-ko">국제우주정거장</tspan></text><text x="80" y="67.5" id="trsvg158"><tspan id="trsvg57">ISS</tspan></text></switch>
    </a>
    <a systemLanguage="es" target="info" xlink:href="https://www.wikiwand.com/en/Estaci%C3%B3n_Espacial_Internacional">
     <switch><text x="80" y="67.5" id="trsvg159-ko" systemLanguage="ko"><tspan id="trsvg58-ko">국제우주정거장</tspan></text><text x="80" y="67.5" id="trsvg159"><tspan id="trsvg58">ISS</tspan></text></switch>
    </a>
    <a systemLanguage="en" target="info" xlink:href="https://www.wikiwand.com/en/Station_spatiale_internationale">
     <switch><text x="80" y="67.5" id="trsvg160-ko" systemLanguage="ko"><tspan id="trsvg59-ko">국제우주정거장</tspan></text><text x="80" y="67.5" id="trsvg160"><tspan id="trsvg59">ISS</tspan></text></switch>
    </a>
    <a target="info" xlink:href="https://www.wikiwand.com/en/International_Space_Station">
     <switch><text x="80" y="67.5" id="trsvg161-ko" systemLanguage="ko"><tspan id="trsvg60-ko">국제우주정거장</tspan></text><text x="80" y="67.5" id="trsvg161"><tspan id="trsvg60">ISS</tspan></text></switch>
    </a>
   </switch>
  </g>
  <g id="hst" class="active" stroke="#00cc00" fill="#00cc00" text-anchor="start">
   <path d="M 0,-69.4 H 80"/>
   <ellipse cx="0" cy="0" rx="69.4" ry="69.4" fill="none"/>
   <g class="rot_hub"><use xlink:href="#satellite" transform="translate(0,-69.4)"/></g>
   <switch>
    <a systemLanguage="en" target="info" xlink:href="https://www.wikiwand.com/en/Hubble_Space_Telescope">
     <switch><text x="80" y="-69.4" id="trsvg162-ko" systemLanguage="ko"><tspan id="trsvg61-ko">허블</tspan></text><text x="80" y="-69.4" id="trsvg162"><tspan id="trsvg61">Hubble</tspan></text></switch>
    </a>
    <a systemLanguage="es" target="info" xlink:href="https://www.wikiwand.com/en/Telescopio_espacial_Hubble">
     <switch><text x="80" y="-69.4" id="trsvg163-ko" systemLanguage="ko"><tspan id="trsvg62-ko">허블</tspan></text><text x="80" y="-69.4" id="trsvg163"><tspan id="trsvg62">Hubble</tspan></text></switch>
    </a>
    <a systemLanguage="en" target="info" xlink:href="https://www.wikiwand.com/en/Hubble_(t%C3%A9lescope_spatial)">
     <switch><text x="80" y="-69.4" id="trsvg164-ko" systemLanguage="ko"><tspan id="trsvg63-ko">허블</tspan></text><text x="80" y="-69.4" id="trsvg164"><tspan id="trsvg63">Hubble</tspan></text></switch>
    </a>
    <a target="info" xlink:href="https://www.wikiwand.com/en/Hubble_Space_Telescope">
     <switch><text x="80" y="-69.4" id="trsvg165-ko" systemLanguage="ko"><tspan id="trsvg64-ko">허블</tspan></text><text x="80" y="-69.4" id="trsvg165"><tspan id="trsvg64">Hubble</tspan></text></switch>
    </a>
   </switch>
  </g>
  <g font-size="24" text-anchor="middle" stroke="#000000" stroke-width="1" fill="#000000">
   <g class="active">
    <path class="rule" d="M 0,0 H -490"/>
    <use xlink:href="#km" transform="translate(-100,0)"/>
    <use xlink:href="#km" transform="translate(-200,0)"/>
    <use xlink:href="#km" transform="translate(-300,0)"/>
    <use xlink:href="#km" transform="translate(-400,0)"/>
    <use xlink:href="#km" transform="translate(-500,0)"/>
    <use xlink:href="#mi" transform="translate(-161,0)"/>
    <use xlink:href="#mi" transform="translate(-322,0)"/>
    <use xlink:href="#mi" transform="translate(-483,0)"/>
    <switch><text x="-115" y="-35" id="trsvg166"><tspan id="trsvg65">10000 km</tspan></text></switch>
    <switch><text x="-215" y="-35" id="trsvg167"><tspan id="trsvg66">20000</tspan></text></switch>
    <switch><text x="-310" y="-35" id="trsvg168"><tspan id="trsvg67">30000</tspan></text></switch>
    <switch><text x="-432" y="-35" text-anchor="start" id="trsvg169"><tspan id="trsvg68">40000</tspan></text></switch>
    <switch><text x="-160" y="55" id="trsvg170"><tspan id="trsvg69">10000 mi</tspan></text></switch>
    <switch><text x="-330" y="55" id="trsvg171"><tspan id="trsvg70">20000</tspan></text></switch>
    <switch>
     <text systemLanguage="en" x="-390" y="-90" font-weight="bold" text-anchor="start" id="trsvg172"><tspan id="trsvg71">Radius</tspan><tspan x="-390" y="-70" id="trsvg72">of orbit</tspan></text>
     <text systemLanguage="es" x="-390" y="-95" font-weight="bold" text-anchor="start" id="trsvg173"><tspan id="trsvg73">Radio de</tspan><tspan x="-390" y="-70" id="trsvg74">la órbita</tspan></text>
     <text systemLanguage="en" x="-390" y="-95" font-weight="bold" text-anchor="start" id="trsvg174"><tspan id="trsvg75">Rayon de</tspan><tspan x="-390" y="-70" id="trsvg76">l'orbite</tspan></text>
     
    <text x="-390" y="-90" font-weight="bold" text-anchor="start" id="trsvg175-ko" systemLanguage="ko"><tspan id="trsvg77-ko">궤도</tspan><tspan x="-390" y="-70" id="trsvg78-ko">반지름</tspan></text><text x="-390" y="-90" font-weight="bold" text-anchor="start" id="trsvg175"><tspan id="trsvg77">Radius</tspan><tspan x="-390" y="-70" id="trsvg78">of orbit</tspan></text></switch>
   </g>
   <g class="active">
    <g transform="translate(64,0)">
     <path class="rule" d="M 0,0 H 483"/>
     <use xlink:href="#km"/>
     <use xlink:href="#km" transform="translate(100,0)"/>
     <use xlink:href="#km" transform="translate(200,0)"/>
     <use xlink:href="#km" transform="translate(300,0)"/>
     <use xlink:href="#mi"/>
     <use xlink:href="#mi" transform="translate(161,0)"/>
     <use xlink:href="#mi" transform="translate(322,0)"/>
     <switch><text x="100" y="-35" id="trsvg176"><tspan id="trsvg79">10000</tspan></text></switch>
     <switch><text x="190" y="-35" id="trsvg177"><tspan id="trsvg80">20000</tspan></text></switch>
     <switch><text x="300" y="-35" id="trsvg178"><tspan id="trsvg81">30000 km</tspan></text></switch>
     <switch><text x="150" y="55" id="trsvg179"><tspan id="trsvg82">10000</tspan></text></switch>
     <switch><text x="300" y="55" id="trsvg180"><tspan id="trsvg83">20000 mi</tspan></text></switch>
     <switch>
      <text systemLanguage="en" x="345" y="-90" font-weight="bold" text-anchor="end" id="trsvg181"><tspan id="trsvg84">Height above</tspan><tspan x="345" y="-70" id="trsvg85">sea level</tspan></text>
      <text systemLanguage="es" x="345" y="-95" font-weight="bold" text-anchor="end" id="trsvg182"><tspan id="trsvg86">Altura sobre el</tspan><tspan x="345" y="-70" id="trsvg87">nivel del mar</tspan></text>
      <text systemLanguage="en" x="345" y="-70" font-weight="bold" text-anchor="end" id="trsvg183"><tspan id="trsvg88">Altitude</tspan></text>
      
     <text x="345" y="-90" font-weight="bold" text-anchor="end" id="trsvg184-ko" systemLanguage="ko"><tspan id="trsvg89-ko">해발</tspan><tspan x="345" y="-70" id="trsvg90-ko">고도</tspan></text><text x="345" y="-90" font-weight="bold" text-anchor="end" id="trsvg184"><tspan id="trsvg89">Height above</tspan><tspan x="345" y="-70" id="trsvg90">sea level</tspan></text></switch>
    </g>
   </g>
   <g class="active" text-anchor="start">
    <path class="rule" d="M 0,0 V -432 M 0,-51 H 10 M 0,-81 H 10 M 0,-106 H 10 M 0,-128 H 10 M 0,-149 H 20 M 0,-168 H 10 M 0,-186 H 10 M 0,-203 H 10 M 0,-220 H 10 M 0,-236 H 30 M 0,-251 H 10 M 0,-266 H 10 M 0,-281 H 10 M 0,-295 H 10 M 0,-309 H 20 M 0,-322 H 10 M 0,-336 H 10 M 0,-349 H 10 M 0,-362 H 10 M 0,-374 H 30 M 0,-387 H 10 M 0,-399 H 10 M 0,-411 H 10 M 0,-423 H 10"/>
    <switch>
     <g systemLanguage="en">
      <switch><text x="-15" y="-350" font-weight="bold" text-anchor="end" id="trsvg185-ko" systemLanguage="ko"><tspan id="trsvg91-ko">궤도 주기</tspan></text><text x="-15" y="-350" font-weight="bold" text-anchor="end" id="trsvg185"><tspan id="trsvg91">Orbital period</tspan></text></switch>
      <switch><text x="30" y="-139" id="trsvg186-ko" systemLanguage="ko"><tspan id="trsvg92-ko">5시간</tspan></text><text x="30" y="-139" id="trsvg186"><tspan id="trsvg92">5 hours</tspan></text></switch>
      <switch><text x="30" y="-221" id="trsvg187-ko" systemLanguage="ko"><tspan id="trsvg93-ko">10시간</tspan></text><text x="30" y="-221" id="trsvg187"><tspan id="trsvg93">10 hours</tspan></text></switch>
      <switch><text x="30" y="-299" id="trsvg188-ko" systemLanguage="ko"><tspan id="trsvg94-ko">15시간</tspan></text><text x="30" y="-299" id="trsvg188"><tspan id="trsvg94">15 hours</tspan></text></switch>
      <switch><text x="30" y="-364" id="trsvg189-ko" systemLanguage="ko"><tspan id="trsvg95-ko">20시간</tspan></text><text x="30" y="-364" id="trsvg189"><tspan id="trsvg95">20 hours</tspan></text></switch>
     </g>
     <g systemLanguage="es">
      <switch><text x="-15" y="-340" font-weight="bold" text-anchor="end" id="trsvg190-ko" systemLanguage="ko"><tspan id="trsvg96-ko">궤도 주기</tspan></text><text x="-15" y="-340" font-weight="bold" text-anchor="end" id="trsvg190"><tspan id="trsvg96">Periodo orbital</tspan></text></switch>
      <switch><text x="30" y="-139" id="trsvg191-ko" systemLanguage="ko"><tspan id="trsvg97-ko">5시간</tspan></text><text x="30" y="-139" id="trsvg191"><tspan id="trsvg97">5 horas</tspan></text></switch>
      <switch><text x="30" y="-221" id="trsvg192-ko" systemLanguage="ko"><tspan id="trsvg98-ko">10시간</tspan></text><text x="30" y="-221" id="trsvg192"><tspan id="trsvg98">10 horas</tspan></text></switch>
      <switch><text x="30" y="-299" id="trsvg193-ko" systemLanguage="ko"><tspan id="trsvg99-ko">15시간</tspan></text><text x="30" y="-299" id="trsvg193"><tspan id="trsvg99">15 horas</tspan></text></switch>
      <switch><text x="30" y="-364" id="trsvg194-ko" systemLanguage="ko"><tspan id="trsvg100-ko">20시간</tspan></text><text x="30" y="-364" id="trsvg194"><tspan id="trsvg100">20 horas</tspan></text></switch>
     </g>
     <g systemLanguage="en">
      <switch><text x="-15" y="-340" font-weight="bold" text-anchor="end" id="trsvg195-ko" systemLanguage="ko"><tspan id="trsvg101-ko">궤도 주기</tspan></text><text x="-15" y="-340" font-weight="bold" text-anchor="end" id="trsvg195"><tspan id="trsvg101">Période orbitale</tspan></text></switch>
      <switch><text x="30" y="-139" id="trsvg196-ko" systemLanguage="ko"><tspan id="trsvg102-ko">5시간</tspan></text><text x="30" y="-139" id="trsvg196"><tspan id="trsvg102">5 heures</tspan></text></switch>
      <switch><text x="30" y="-221" id="trsvg197-ko" systemLanguage="ko"><tspan id="trsvg103-ko">10시간</tspan></text><text x="30" y="-221" id="trsvg197"><tspan id="trsvg103">10 heures</tspan></text></switch>
      <switch><text x="30" y="-299" id="trsvg198-ko" systemLanguage="ko"><tspan id="trsvg104-ko">15시간</tspan></text><text x="30" y="-299" id="trsvg198"><tspan id="trsvg104">15 heures</tspan></text></switch>
      <switch><text x="30" y="-364" id="trsvg199-ko" systemLanguage="ko"><tspan id="trsvg105-ko">20시간</tspan></text><text x="30" y="-364" id="trsvg199"><tspan id="trsvg105">20 heures</tspan></text></switch>
     </g>
     <g>
      <switch><text x="-15" y="-350" font-weight="bold" text-anchor="end" id="trsvg200-ko" systemLanguage="ko"><tspan id="trsvg106-ko">궤도 주기</tspan></text><text x="-15" y="-350" font-weight="bold" text-anchor="end" id="trsvg200"><tspan id="trsvg106">Orbital period</tspan></text></switch>
      <switch><text x="30" y="-139" id="trsvg201-ko" systemLanguage="ko"><tspan id="trsvg107-ko">5시간</tspan></text><text x="30" y="-139" id="trsvg201"><tspan id="trsvg107">5 hours</tspan></text></switch>
      <switch><text x="30" y="-221" id="trsvg202-ko" systemLanguage="ko"><tspan id="trsvg108-ko">10시간</tspan></text><text x="30" y="-221" id="trsvg202"><tspan id="trsvg108">10 hours</tspan></text></switch>
      <switch><text x="30" y="-299" id="trsvg203-ko" systemLanguage="ko"><tspan id="trsvg109-ko">15시간</tspan></text><text x="30" y="-299" id="trsvg203"><tspan id="trsvg109">15 hours</tspan></text></switch>
      <switch><text x="30" y="-364" id="trsvg204-ko" systemLanguage="ko"><tspan id="trsvg110-ko">20시간</tspan></text><text x="30" y="-364" id="trsvg204"><tspan id="trsvg110">20 hours</tspan></text></switch>
     </g>
    </switch>
   </g>
   <g class="active" text-anchor="start">
    <path class="rule" d="M 0,69 H -10 M 0,78 H -10 M 0,89 H -20 M 0,102 H -10 M 0,118 H -10 M 0,139 H -10 M 0,165 H -10 M 0,200 H -30 M 0,247 H -10 M 0,312 H -10 M 0,408 H -10 M 0,0 V 432 M 0,66 H 10 M 0,71 H 10 M 0,77 H 10 M 0,83 H 20 M 0,90 H 10 M 0,98 H 10 M 0,107 H 10 M 0,117 H 10 M 0,129 H 30 M 0,143 H 10 M 0,160 H 10 M 0,179 H 10 M 0,202 H 10 M 0,230 H 20 M 0,264 H 10 M 0,306 H 10 M 0,359 H 10 M 0,427 H 10"/>
    <switch><text x="30" y="93" id="trsvg205"><tspan id="trsvg111">25000 km/h</tspan></text></switch>
    <switch><text x="30" y="139" id="trsvg206"><tspan id="trsvg112">20000 km/h</tspan></text></switch>
    <switch><text x="30" y="235" id="trsvg207"><tspan id="trsvg113">15000 km/h</tspan></text></switch>
    <switch><text x="15" y="429" id="trsvg208"><tspan id="trsvg114">11000 km/h</tspan></text></switch>
    <switch><text x="-30" y="99" text-anchor="end" id="trsvg209"><tspan id="trsvg115">15000 mph</tspan></text></switch>
    <switch><text x="-30" y="210" text-anchor="end" id="trsvg210"><tspan id="trsvg116">10000 mph</tspan></text></switch>
    <switch><text x="-15" y="415" text-anchor="end" id="trsvg211"><tspan id="trsvg117">7000 mph</tspan></text></switch>
    <switch>
     <g systemLanguage="en">
      <switch><text x="-15" y="350" font-weight="bold" text-anchor="end" id="trsvg212-ko" systemLanguage="ko"><tspan id="trsvg118-ko">공전 속도</tspan></text><text x="-15" y="350" font-weight="bold" text-anchor="end" id="trsvg212"><tspan id="trsvg118">Orbital speed</tspan></text></switch>
     </g>
     <g systemLanguage="es">
      <switch><text x="-15" y="350" font-weight="bold" text-anchor="end" id="trsvg213-ko" systemLanguage="ko"><tspan id="trsvg119-ko">공전 속도</tspan></text><text x="-15" y="350" font-weight="bold" text-anchor="end" id="trsvg213"><tspan id="trsvg119">Velocidad orbital</tspan></text></switch>
     </g>
     <g systemLanguage="en">
      <switch><text x="-15" y="350" font-weight="bold" text-anchor="end" id="trsvg214-ko" systemLanguage="ko"><tspan id="trsvg120-ko">공전 속도</tspan></text><text x="-15" y="350" font-weight="bold" text-anchor="end" id="trsvg214"><tspan id="trsvg120">Vitesse orbitale</tspan></text></switch>
     </g>
     <g>
      <switch><text x="-15" y="350" font-weight="bold" text-anchor="end" id="trsvg215-ko" systemLanguage="ko"><tspan id="trsvg121-ko">공전 속도</tspan></text><text x="-15" y="350" font-weight="bold" text-anchor="end" id="trsvg215"><tspan id="trsvg121">Orbital speed</tspan></text></switch>
     </g>
    </switch>
   </g>
   <g id="earth" class="nofade">
    <ellipse cx="0" cy="0" rx="64.28" ry="64.28" fill="#0066ff" stroke="#66ccff"/>
    <g class="rot_geo">
     <path transform="scale(0.6378)" fill="#ffcc00" stroke="none" clip-path="url(#clip_earth)" d="M -15,-22 C -18,-28 -9,-20 -13,-28 -9,-30 -12,-31 -6,-34 -2,-36 -9,-35 -3,-43 2,-38 -6,-34 -2,-31 -3,-38 20,-31 8,-41 9,-53 12,-47 10,-42 20,-56 19,-43 23,-50 28,-50 21,-54 28,-55 28,-50 29,-43 35,-46 26,-54 36,-44 35,-56 51,-65 53,-49 59,-52 59,-62 62,-61 68,-59 69,-57 67,-46 74,-52 76,-58 70,-55 76,-63 79,-52 76,-58 75,-50 62,-41 76,-43 70,-40 62,-29 77,-29 80,-23 84,-25 99,-19 76,-11 77,1 71,-11 71,6 67,23 64,12 63,20 79,17 64,12 74,7 81,11 79,22 81,31 72,33 57,32 59,36 95,34 79,22 85,19 100,37 82,45 108,48 101,68 114,55 110,67 111,71 113,85 96,100 85,98 66,99 70,87 52,79 60,92 55,80 41,77 28,102 13,85 10,74 11,61 35,48 34,53 49,48 46,45 46,40 60,38 53,29 49,26 51,40 43,34 46,25 49,26 49,21 44,21 45,23 42,22 42,22 43,24 44,26 34,26 44,31 43,34 38,39 49,36 41,40 22,36 32,42 39,41 35,48 44,46 34,46 44,41 24,40 23,50 23,55 16,61 14,50 24,45 21,44 16,44 14,40 25,37 19,30 22,26 19,35 24,31 33,24 21,24 20,17 18,18 31,35 20,27 20,32 13,28 16,24 16,19 12,14 22,10 26,13 22,5 23,2 26,-2 12,-1 23,-3 16,-3 16,-8 10,-10 8,-14 14,-12 10,-15 7,-16 10,-22 3,-19 -7,-26 -6,-17 -15,-22  M -26,-30 C -28,-14 -24,-35 -15,-17 -16,-7 -24,-14 -22,-5 -28,8 -21,7 -18,3 -13,9 -29,11 -19,11 -23,18 -23,8 -24,16 -31,7 -36,12 -32,20 -36,22 -36,29 -31,22 -29,28 -25,9 -23,25 -20,31 -23,35 -22,42 -35,36 -11,39 -34,33 -22,37 -36,34 -28,40 -41,39 -29,38 -37,37 -41,39 -41,34 -46,39 -59,32 -56,43 -60,40 -60,35 -54,37 -62,29 -61,11 -87,28 -69,32 -64,42 -79,30 -71,43 -82,50 -70,50 -72,56 -56,58 -67,61 -53,71 -48,86 -42,78 -41,90 -38,96 -14,102 -19,107 -20,110 -30,110 -28,114 -32,121 -34,121 -51,117 -51,122 -67,125 -77,114 -66,127 -89,115 -93,112 -88,122 -105,106 -101,116 -116,108 -106,120 -105,122 -126,108 -124,92 -111,98 -104,88 -109,102 -86,84 -94,66 -87,70 -88,58 -81,53 -79,62 -74,57 -72,51 -74,52 -76,53 -80,40 -76,38 -77,29 -79,25 -79,10 -75,13 -74,10 -71,6 -66,1 -74,5 -73,7 -75,8 -74,-0 -64,0 -62,-6 -46,-15 -59,0 -31,-15 -24,-21 -30,-23 -26,-30  M 13,-141 C -15,-128 24,-122 23,-109 28,-109 25,-120 33,-114 40,-109 38,-108 33,-109 49,-99 48,-108 53,-103 73,-96 58,-108 81,-94 90,-96 82,-102 87,-107 73,-122 59,-116 44,-131 33,-133 42,-142 13,-141  M 12,-106 C 19,-102 27,-101 29,-97 42,-98 29,-95 40,-92 42,-100 25,-100 33,-104 30,-105 26,-108 21,-108 16,-103 19,-112 7,-111 2,-111 19,-107 12,-106  M 108,31 C 115,25 114,33 120,37 121,39 123,43 119,45 111,49 117,41 111,44 108,43 109,40 110,37 110,37 112,34 108,31  M 12,-52 C 11,-54 13,-57 15,-58 16,-61 21,-61 25,-56 23,-55 14,-60 13,-50 7,-48 7,-53 12,-52  M 43,-81 C 40,-73 48,-71 42,-69 44,-62 49,-69 48,-71 45,-77 59,-69 48,-76 53,-76 47,-83 43,-81  M 48,-86 C 50,-82 48,-86 55,-82 65,-82 58,-86 61,-85 62,-93 58,-81 56,-90 54,-89 59,-84 48,-86  M 55,-77 C 55,-72 57,-73 60,-72 63,-71 68,-71 71,-68 74,-74 67,-83 63,-81 53,-81 63,-76 55,-77  M -21,-3 C -22,-5 -13,-1 -15,-0 -14,7 -16,8 -18,-1 -21,2 -16,3 -22,5 -27,0 -22,0 -21,-3  M -43,-139 C -45,-139 -49,-137 -50,-139 -42,-142 -41,-150 -30,-148 -31,-145 -37,-147 -43,-139  M -42,-132 C -45,-129 -50,-134 -56,-131 -59,-127 -54,-142 -46,-136 -52,-133 -45,-134 -42,-132  M -15,10 C -16,17 -11,18 -21,24 -28,8 -19,23 -18,13 -21,7 -17,6 -15,10  M 12,36 C 11,29 13,33 17,36 23,38 16,39 15,42 14,35 15,37 12,36  M -52,-54 C -55,-50 -61,-47 -60,-50 -62,-54 -59,-48 -52,-54  M -8,14 C -17,10 -1,3 2,9 3,33 -10,22 -10,32 -18,30 -10,20 -8,14  M 42,-62 C 41,-59 38,-62 38,-60 38,-62 40,-63 42,-62  M 57,-56 C 54,-57 53,-59 53,-54 58,-54 56,-53 57,-56  M 24,-144 C 21,-145 15,-142 16,-145 22,-153 32,-137 24,-144  M 69,-84 C 75,-77 76,-75 80,-69 81,-74 72,-83 69,-84  M -61,53 C -57,56 -52,61 -54,57 -56,53 -60,50 -61,53  M 80,-69 C 78,-71 78,-49 81,-48 81,-53 85,-59 80,-69  M -66,38 C -62,36 -57,56 -60,50 -65,40 -60,45 -66,38  M 12,41 C 14,40 13,38 12,36 9,35 10,42 12,41  M 0,27 C 2,26 4,25 5,27 2,31 1,29 0,27  M -5,5 C -4,7 -14,12 -16,8 -15,5 -9,2 -5,5  M 88,-26 C 85,-28 86,-26 85,-23 90,-22 91,-25 88,-26  M 8,6 C 13,11 9,8 10,10 5,10 7,9 8,6  M 14,-2 C 17,-1 17,4 21,3 23,7 14,3 14,-2"/>
    </g>
    <ellipse class="rot_sun" cx="0" cy="0" rx="63.78" ry="63.78" fill="url(#gradient_shade)"/>
   </g>
   <g id="clock" class="nofade" transform="translate(360,360) scale(-1,1)" stroke-width="2" stroke="#999999">
    <use xlink:href="#tick_3"/>
    <use xlink:href="#tick_3" transform="rotate(90)"/>
    <use xlink:href="#tick_3" transform="rotate(180)"/>
    <use xlink:href="#tick_3" transform="rotate(270)"/>
    <path class="rot_min" d="M 0,0 V -40"/>
    <path class="rot_hr" d="M 0,0 V -20"/>
   </g>
  </g>
 </g>
</svg>
